<?xml version="1.0" encoding="UTF-8" standalone="no"?>
<!-- Created with Inkscape (http://www.inkscape.org/) -->

<svg
   width="210mm"
   height="297mm"
   viewBox="0 0 210 297"
   version="1.1"
   id="svg1"
   inkscape:version="1.4.2 (f4327f4, 2025-05-13)"
   sodipodi:docname="描画.svg"
   xmlns:inkscape="http://www.inkscape.org/namespaces/inkscape"
   xmlns:sodipodi="http://sodipodi.sourceforge.net/DTD/sodipodi-0.dtd"
   xmlns="http://www.w3.org/2000/svg"
   xmlns:svg="http://www.w3.org/2000/svg">
  <sodipodi:namedview
     id="namedview1"
     pagecolor="#505050"
     bordercolor="#eeeeee"
     borderopacity="1"
     inkscape:showpageshadow="0"
     inkscape:pageopacity="0"
     inkscape:pagecheckerboard="0"
     inkscape:deskcolor="#505050"
     inkscape:document-units="mm"
     inkscape:zoom="1.0167041"
     inkscape:cx="315.23429"
     inkscape:cy="578.83115"
     inkscape:window-width="1920"
     inkscape:window-height="1009"
     inkscape:window-x="-8"
     inkscape:window-y="-8"
     inkscape:window-maximized="1"
     inkscape:current-layer="layer1" />
  <defs
     id="defs1">
    <inkscape:path-effect
       effect="spiro"
       id="path-effect5"
       is_visible="true"
       lpeversion="1" />
    <inkscape:path-effect
       effect="spiro"
       id="path-effect4"
       is_visible="true"
       lpeversion="1" />
    <inkscape:path-effect
       effect="skeletal"
       id="path-effect16"
       is_visible="true"
       lpeversion="1"
       pattern="M 0,4.9921382 C 0,2.2364779 2.2364779,0 4.9921382,0 c 2.7556604,0 4.9921383,2.2364779 4.9921383,4.9921382 0,2.7556604 -2.2364779,4.9921383 -4.9921383,4.9921383 C 2.2364779,9.9842765 0,7.7477986 0,4.9921382 Z"
       copytype="single_stretched"
       prop_scale="1.4001302"
       scale_y_rel="false"
       spacing="0"
       normal_offset="0"
       tang_offset="0"
       prop_units="false"
       vertical_pattern="false"
       hide_knot="false"
       fuse_tolerance="0" />
    <inkscape:path-effect
       effect="skeletal"
       id="path-effect14"
       is_visible="true"
       lpeversion="1"
       pattern="M 0,4.9921382 C 0,2.2364779 2.2364779,0 4.9921382,0 c 2.7556604,0 4.9921383,2.2364779 4.9921383,4.9921382 0,2.7556604 -2.2364779,4.9921383 -4.9921383,4.9921383 C 2.2364779,9.9842765 0,7.7477986 0,4.9921382 Z"
       copytype="single_stretched"
       prop_scale="2.5320125"
       scale_y_rel="false"
       spacing="0"
       normal_offset="0"
       tang_offset="0"
       prop_units="false"
       vertical_pattern="false"
       hide_knot="false"
       fuse_tolerance="0" />
    <inkscape:path-effect
       effect="skeletal"
       id="path-effect8"
       is_visible="true"
       lpeversion="1"
       pattern="M 0,4.9921382 C 0,2.2364779 2.2364779,0 4.9921382,0 c 2.7556604,0 4.9921383,2.2364779 4.9921383,4.9921382 0,2.7556604 -2.2364779,4.9921383 -4.9921383,4.9921383 C 2.2364779,9.9842765 0,7.7477986 0,4.9921382 Z"
       copytype="single_stretched"
       prop_scale="2.5320125"
       scale_y_rel="false"
       spacing="0"
       normal_offset="0"
       tang_offset="0"
       prop_units="false"
       vertical_pattern="false"
       hide_knot="false"
       fuse_tolerance="0" />
    <inkscape:path-effect
       effect="spiro"
       id="path-effect7"
       is_visible="true"
       lpeversion="1" />
    <inkscape:path-effect
       effect="spiro"
       id="path-effect3"
       is_visible="true"
       lpeversion="1" />
    <inkscape:path-effect
       effect="spiro"
       id="path-effect5-4"
       is_visible="true"
       lpeversion="1" />
  </defs>
  <g
     inkscape:label="Layer 1"
     inkscape:groupmode="layer"
     id="layer1">
    <path
       style="fill:#bcd35f;stroke-width:0.314631"
       id="path19"
       sodipodi:type="arc"
       sodipodi:cx="159.65498"
       sodipodi:cy="113.07267"
       sodipodi:rx="23.030914"
       sodipodi:ry="13.141934"
       sodipodi:start="0"
       sodipodi:end="5.6942421"
       sodipodi:arc-type="slice"
       d="m 182.6859,113.07267 a 23.030914,13.141934 0 0 1 -19.65218,12.99974 23.030914,13.141934 0 0 1 -25.4183,-9.1855 23.030914,13.141934 0 0 1 12.19422,-15.69485 23.030914,13.141934 0 0 1 28.9962,4.58049 l -19.15086,7.30012 z" />
    <path
       style="fill:#089db5;fill-opacity:1;stroke-width:0.264583"
       d="m 92.007435,77.654273 c -5.386445,-0.600537 -10.898722,0.71786 -15.672299,3.284453 -4.773577,2.566593 -8.835191,6.337356 -12.146157,10.628269 -6.621933,8.581825 -10.228344,19.036335 -14.136936,29.146755 -0.506575,1.31037 -1.026125,2.64562 -1.104087,4.04833 -0.08569,1.54176 0.375545,3.07973 1.117639,4.43386 0.742094,1.35413 1.755991,2.5404 2.832437,3.64749 2.152891,2.21418 4.640531,4.22843 5.986726,7.00787 1.250236,2.58131 1.371163,5.63928 0.568299,8.39276 -0.802865,2.75349 -2.485978,5.2067 -4.597765,7.14747 -4.223573,3.88156 -9.933817,5.66723 -15.521369,6.96505 -5.587552,1.29782 -11.350545,2.25417 -16.446982,4.88693 -2.548219,1.31637 -4.906136,3.05597 -6.71698,5.28018 -1.810844,2.22421 -3.054706,4.95231 -3.28892,7.81088 -0.0301,0.36743 -0.04367,0.73803 0,1.10409 0.111543,0.93493 0.609087,1.81353 1.338339,2.40912 0.729252,0.59559 1.679862,0.9067 2.6211,0.88211 0.941237,-0.0246 1.866755,-0.38006 2.598374,-0.97274 0.731618,-0.59268 1.268315,-1.41663 1.538841,-2.31849 0.248327,-0.82785 0.275843,-1.70675 0.225871,-2.56961 -0.04997,-0.86285 -0.175335,-1.71999 -0.225871,-2.58281 -0.144664,-2.46988 0.350167,-5.00709 1.619784,-7.1306 1.269618,-2.12351 3.347023,-3.79908 5.753682,-4.37285 1.203329,-0.28689 2.474922,-0.29845 3.67649,-0.004 1.201569,0.29417 2.33019,0.89646 3.223113,1.75261 0.892924,0.85615 1.545155,1.96638 1.829602,3.17028 0.284447,1.20391 0.195803,2.49762 -0.277394,3.64059 -0.424704,1.02584 -1.141296,1.90861 -1.949583,2.66979 -0.808286,0.76119 -1.712089,1.41223 -2.594068,2.08665 -0.881979,0.67442 -1.750462,1.37997 -2.465934,2.22899 -0.715473,0.84901 -1.275786,1.85567 -1.455097,2.95138 -0.183292,1.12003 0.04934,2.3019 0.63614,3.27336 0.586797,0.97147 1.5218,1.72593 2.592512,2.10229 1.070712,0.37636 2.269095,0.3735 3.340864,1.6e-4 1.071769,-0.37334 2.010605,-1.11333 2.631227,-2.06354 0.59838,-0.91616 0.897391,-2.00455 0.989921,-3.09489 0.09253,-1.09034 -0.01304,-2.18819 -0.171975,-3.27084 -0.317881,-2.16531 -0.850053,-4.36369 -0.449916,-6.51532 0.313363,-1.68502 1.212917,-3.2576 2.516218,-4.37065 1.303301,-1.11306 3.002635,-1.75627 4.716488,-1.7704 1.713852,-0.0141 3.428284,0.60392 4.729359,1.71958 1.301075,1.11566 2.17501,2.72124 2.391094,4.42147 0.229365,1.80473 -0.26022,3.62204 -0.870517,5.33587 -0.610296,1.71383 -1.350448,3.39865 -1.651935,5.19274 -0.150744,0.89704 -0.188932,1.8186 -0.04144,2.71619 0.147491,0.89759 0.485702,1.77162 1.038543,2.49397 0.55284,0.72234 1.326844,1.2863 2.204445,1.52554 0.877601,0.23923 1.855949,0.13765 2.633174,-0.33494 0.439247,-0.26708 0.807981,-0.64529 1.078715,-1.08229 0.270734,-0.43701 0.444392,-0.93178 0.523479,-1.43973 0.158176,-1.01591 -0.06297,-2.06689 -0.498104,-2.99842 -0.566217,-1.21216 -1.471835,-2.22642 -2.247965,-3.31617 -0.388064,-0.54487 -0.747037,-1.11447 -1.010569,-1.72931 -0.263532,-0.61484 -0.429972,-1.2782 -0.421764,-1.94709 0.01045,-0.85146 0.309188,-1.6922 0.813275,-2.37849 0.504087,-0.68629 1.208355,-1.21845 1.994499,-1.54568 0.786144,-0.32722 1.65163,-0.45203 2.50107,-0.39244 0.84944,0.0596 1.682538,0.30117 2.447017,0.67623 1.528959,0.75012 2.760331,2.01715 3.690387,3.44382 0.930056,1.42667 1.580007,3.01564 2.170853,4.61292 3.343403,9.03847 5.002172,18.74783 9.568773,27.2342 0.584748,1.08667 1.218535,2.15364 2.002963,3.10625 0.784428,0.9526 1.727059,1.79151 2.830471,2.34402 1.103412,0.5525 2.37593,0.80585 3.59089,0.58986 1.214961,-0.21599 2.3584,-0.92848 2.984596,-1.9918 0.365262,-0.62024 0.548575,-1.34014 0.567357,-2.0597 0.01878,-0.71956 -0.1235,-1.43871 -0.374466,-2.11334 -0.501933,-1.34927 -1.420876,-2.50122 -2.401069,-3.55559 -1.900142,-2.04393 -4.075915,-3.80884 -6.12207,-5.70659 -2.046154,-1.89774 -3.991182,-3.96667 -5.286851,-6.43839 -1.396733,-2.66452 -1.982586,-5.76395 -1.553598,-8.74162 0.428989,-2.97767 1.888072,-5.81344 4.129807,-7.81972 2.378025,-2.12826 5.606686,-3.27441 8.794932,-3.13454 3.188246,0.13987 6.299987,1.56115 8.502465,3.8706 1.734358,1.81859 2.880933,4.10627 3.964931,6.37348 1.083999,2.26721 2.149913,4.58117 3.763696,6.50756 1.70241,2.03219 3.98685,3.56695 6.50437,4.39766 2.51752,0.83071 5.25998,0.95772 7.84879,0.38673 2.66131,-0.58698 5.14472,-1.90163 7.20009,-3.6912 2.05537,-1.78957 3.68708,-4.04552 4.84462,-6.51274 2.3151,-4.93446 2.70629,-10.60949 1.93427,-16.00509 -1.54403,-10.7912 -7.43466,-20.42464 -10.66672,-30.83558 -0.55088,-1.77445 -1.02645,-3.58263 -1.20444,-5.43208 -0.17799,-1.84945 -0.0497,-3.74998 0.57964,-5.49814 0.62934,-1.74816 1.78583,-3.33682 3.37243,-4.30371 0.79329,-0.48344 1.68656,-0.80735 2.60891,-0.91827 0.92235,-0.11091 1.87301,-0.006 2.74012,0.32692 1.19422,0.45916 2.20163,1.3427 2.91268,2.40637 0.71104,1.06368 1.13701,2.30094 1.35086,3.56239 0.4277,2.52289 0.0282,5.10105 -0.21521,7.64834 -0.18447,1.93037 -0.26365,3.95701 0.53346,5.72476 0.39855,0.88388 1.01995,1.68075 1.83701,2.20277 0.81705,0.52203 1.83635,0.7515 2.78194,0.53716 1.03579,-0.23478 1.91413,-0.98655 2.42605,-1.9171 0.51192,-0.93054 0.68043,-2.0235 0.61149,-3.08333 -0.13788,-2.11964 -1.16614,-4.05978 -1.93345,-6.04047 -1.76463,-4.55511 -2.22074,-9.60368 -4.53972,-13.90314 -1.15948,-2.14973 -2.81293,-4.09308 -4.96852,-5.24162 -1.0778,-0.57427 -2.27128,-0.9417 -3.48992,-1.02131 -1.21865,-0.0796 -2.46163,0.13323 -3.56318,0.6605 -1.07425,0.5142 -1.99814,1.31821 -2.71796,2.26703 -0.71982,0.94883 -1.24018,2.03989 -1.59905,3.1755 -0.71775,2.27122 -0.79362,4.68891 -0.8354,7.07048 -0.17031,9.70841 0.17169,19.65248 3.68029,28.70632 1.25726,3.24433 2.90704,6.33226 4.03221,9.62473 1.12516,3.29248 1.70642,6.90285 0.75218,10.24887 -0.69429,2.43449 -2.19132,4.61915 -4.1554,6.2164 -1.96407,1.59724 -4.38154,2.61148 -6.88549,2.98435 -1.83803,0.27371 -3.76626,0.19948 -5.4828,-0.51239 -0.85827,-0.35593 -1.65492,-0.86978 -2.30523,-1.53342 -0.65031,-0.66363 -1.15158,-1.47885 -1.41271,-2.37055 -0.25108,-0.85737 -0.27728,-1.77636 -0.10095,-2.65216 0.17634,-0.8758 0.55289,-1.70788 1.0733,-2.43403 1.04081,-1.4523 2.63888,-2.45384 4.35406,-2.95446 1.71518,-0.50061 3.54343,-0.52536 5.31288,-0.2773 1.76944,0.24806 3.4904,0.76191 5.18598,1.32538 5.40936,1.79761 10.78526,4.21635 14.75828,8.30385 1.98651,2.04375 3.58678,4.49084 4.47779,7.1981 0.89101,2.70725 1.0513,5.6792 0.26951,8.41999 -0.7799,2.73417 -2.44331,5.1286 -4.24356,7.32928 -1.80025,2.20069 -3.77178,4.27451 -5.32521,6.65585 -0.74797,1.14661 -1.39917,2.36978 -1.77689,3.68565 -0.37772,1.31586 -0.47196,2.73329 -0.11463,4.05484 0.35733,1.32155 1.19302,2.53678 2.38244,3.21462 0.59471,0.33892 1.27,0.54016 1.95416,0.56185 0.68416,0.0217 1.37585,-0.1384 1.97127,-0.47607 0.7515,-0.42619 1.32911,-1.12134 1.70586,-1.8988 0.37676,-0.77746 0.56297,-1.63572 0.64909,-2.49535 0.17222,-1.71928 -0.0435,-3.46714 0.22126,-5.17462 0.34741,-2.24069 1.49444,-4.26373 2.57621,-6.25651 1.89722,-3.49494 3.67479,-7.12849 4.36746,-11.04439 0.34633,-1.95795 0.41399,-3.97474 0.0827,-5.93529 -0.3313,-1.96055 -1.06931,-3.8644 -2.24197,-5.47013 -1.08055,-1.47961 -2.49719,-2.67277 -3.8512,-3.90707 -1.35401,-1.2343 -2.68161,-2.55508 -3.5094,-4.18959 -1.12053,-2.21254 -1.20698,-4.92863 -0.20413,-7.19694 1.00285,-2.2683 3.08241,-4.03803 5.4887,-4.63859 2.4063,-0.60057 5.08593,-0.009 6.99837,1.5702 1.91243,1.57909 3.00221,4.11269 2.80628,6.58504 -0.13109,1.65414 -0.79443,3.21849 -1.55032,4.69565 -0.7559,1.47715 -1.61626,2.90894 -2.19132,4.46543 -0.57506,1.5565 -0.85123,3.28308 -0.39562,4.87863 0.22781,0.79778 0.63955,1.54882 1.22688,2.13481 0.58733,0.58599 1.35368,1.00084 2.17432,1.12287 0.64974,0.0966 1.32111,0.01 1.93893,-0.21346 0.61781,-0.22318 1.18313,-0.57988 1.67705,-1.01294 0.98786,-0.8661 1.67991,-2.01741 2.2725,-3.18995 1.22183,-2.41759 2.0929,-5.02635 2.41667,-7.71573 0.32376,-2.68937 0.0902,-5.46135 -0.82322,-8.0115 -0.91339,-2.55016 -2.52098,-4.86945 -4.68149,-6.50339 -2.16052,-1.63393 -4.87907,-2.55589 -7.58482,-2.42737 -1.56258,0.0742 -3.08862,0.4863 -4.64183,0.67266 -0.7766,0.0932 -1.56385,0.12967 -2.3407,0.0386 -0.77685,-0.0911 -1.54502,-0.31302 -2.21822,-0.71126 -0.91995,-0.54421 -1.63434,-1.40743 -2.06407,-2.3861 -0.42974,-0.97868 -0.58248,-2.0678 -0.51213,-3.13435 0.13677,-2.07357 1.12916,-4.06926 2.66827,-5.46551 1.53911,-1.39626 3.60271,-2.18745 5.68042,-2.22637 2.07771,-0.0389 4.15409,0.66528 5.80943,1.92157 1.65533,1.25629 2.88564,3.05134 3.5073,5.03425 0.70345,2.24381 0.63584,4.6432 0.73606,6.99256 0.0649,1.52033 0.21421,3.07987 0.89467,4.44097 0.34023,0.68055 0.81352,1.30145 1.41783,1.76374 0.60432,0.46229 1.3435,0.7602 2.10386,0.78786 0.93287,0.0339 1.86345,-0.3475 2.54239,-0.98817 0.67893,-0.64066 1.10881,-1.52669 1.24695,-2.4499 0.13815,-0.92321 -0.008,-1.87951 -0.36297,-2.74275 -0.35526,-0.86325 -0.91497,-1.63515 -1.58622,-2.28386 -1.17512,-1.13567 -2.66065,-1.88238 -4.03769,-2.76239 -0.68852,-0.44001 -1.35683,-0.91887 -1.93959,-1.49163 -0.58277,-0.57275 -1.07973,-1.24388 -1.38332,-2.00249 -0.43916,-1.09736 -0.45108,-2.34756 -0.0993,-3.47596 0.35181,-1.1284 1.0555,-2.13421 1.94972,-2.90715 1.78843,-1.54589 4.25067,-2.12292 6.61425,-2.08157 3.511,0.0614 7.06432,1.47165 9.34746,4.13963 1.14157,1.334 1.94983,2.96049 2.26651,4.68747 0.31669,1.72697 0.13363,3.55077 -0.57308,5.15803 -0.35531,0.80807 -0.83568,1.55372 -1.26424,2.32544 -0.42856,0.77172 -0.81092,1.58629 -0.94394,2.45894 -0.14802,0.97106 0.0273,1.98676 0.4814,2.85779 0.45405,0.87104 1.18294,1.59417 2.05179,2.05238 0.86885,0.45822 1.8734,0.65127 2.85144,0.56024 0.97805,-0.091 1.92654,-0.46423 2.71202,-1.05405 0.79202,-0.59474 1.41555,-1.40444 1.82056,-2.30831 0.40502,-0.90387 0.59394,-1.89961 0.58367,-2.89002 -0.0205,-1.98082 -0.83382,-3.90025 -2.0362,-5.47453 -1.37546,-1.80089 -3.22405,-3.1713 -5.03001,-4.54009 -1.80595,-1.3688 -3.62475,-2.79212 -4.90679,-4.66066 -0.85664,-1.24853 -1.45471,-2.68507 -1.65293,-4.18619 -0.19822,-1.50112 0.0132,-3.06587 0.67896,-4.4258 0.66577,-1.35993 1.79535,-2.50252 3.1825,-3.10954 1.38715,-0.60702 3.02556,-0.65485 4.41601,-0.0554 0.80273,0.34606 1.51051,0.89478 2.08852,1.55054 0.57802,0.65577 1.02919,1.41703 1.37929,2.218 0.7002,1.60195 0.99674,3.34538 1.31657,5.06417 0.27652,1.48605 0.58457,2.99567 1.31886,4.31689 0.36714,0.66062 0.84058,1.26763 1.42764,1.74362 0.58705,0.47599 1.29083,0.81763 2.03789,0.93206 0.86325,0.13223 1.76466,-0.0457 2.53252,-0.46172 0.76786,-0.41602 1.40221,-1.06355 1.8376,-1.82059 0.43539,-0.75705 0.67484,-1.6205 0.7322,-2.49194 0.0574,-0.87143 -0.0646,-1.75057 -0.31793,-2.58634 -0.59321,-1.95716 -1.90426,-3.65783 -3.53917,-4.88642 -1.6349,-1.2286 -3.58088,-2.00364 -5.58134,-2.42852 -4.00092,-0.84977 -8.14518,-0.33328 -12.22522,-0.0457 -7.71786,0.54406 -15.47386,0.25355 -23.18587,-0.36803 -3.34311,-0.26945 -6.75927,-0.62182 -9.78987,-2.05863 -1.5153,-0.71841 -2.91578,-1.70904 -4.00008,-2.98831 -1.0843,-1.27927 -1.84199,-2.85604 -2.03533,-4.52183 -0.22473,-1.93621 0.31502,-3.89937 1.19163,-5.64034 0.87662,-1.74097 2.07913,-3.29332 3.27065,-4.83595 1.19152,-1.54264 2.38795,-3.10067 3.24999,-4.84891 0.86204,-1.74823 1.37748,-3.72031 1.12044,-5.6525 -0.17225,-1.29484 -0.68709,-2.53177 -1.40654,-3.62204 -0.71945,-1.09026 -1.63986,-2.03845 -2.64935,-2.86743 -2.01898,-1.657971 -4.37724,-2.838491 -6.61697,-4.183389 -5.33774,-3.205171 -10.03015,-7.364663 -15.103,-10.974479 -5.07285,-3.609816 -10.727805,-6.737131 -16.915585,-7.427009 z"
       id="path3"
       inkscape:path-effect="#path-effect3"
       inkscape:original-d="M 92.007435,77.654273 C 81.334572,71.520446 63.914498,106.60595 50.052043,120.71375 c -13.862452,14.10781 -0.490706,2.57621 -1.104087,4.04833 -0.613384,1.47212 6.379181,10.05948 9.936802,15.08922 3.55762,5.02974 -30.546468,26.98885 -46.003717,40.48327 -15.4572491,13.49442 0.122676,0.73606 0,1.10409 -0.122677,0.36803 5.029739,-0.12268 8.096654,0 3.066914,0.12268 0.122677,-3.31227 0,-5.15242 -0.122677,-1.84015 10.550187,-1.96282 15.825277,-2.94424 5.275093,-0.98141 -5.520444,6.37919 -8.464682,9.93681 -2.944238,3.55762 6.011151,2.45353 9.200743,3.31227 3.189591,0.85873 0.245353,-8.46469 0.36803,-12.88105 0.122676,-4.41635 9.814126,-0.12267 14.353159,0 4.539035,0.12268 1.962827,11.28625 3.312268,16.92937 1.349441,5.64312 0.73606,-3.68029 1.10409,-5.52044 0.368028,-1.84015 -2.453531,-4.41636 -3.680298,-6.99257 -1.226765,-2.57621 9.200742,2.69889 13.617101,4.41636 4.416356,1.71747 6.501858,18.40149 9.568773,27.2342 3.066915,8.83271 7.360594,2.45353 11.40892,4.04833 4.048329,1.59479 -1.594795,-5.15242 -2.208178,-7.72863 -0.613384,-2.57621 -7.237918,-8.34201 -11.408921,-12.14498 -4.171005,-3.80297 1.472118,-10.79554 2.576209,-16.56134 1.104087,-5.7658 11.40892,0.73606 17.297397,0.73606 5.888476,0 5.520446,8.21933 7.728627,12.88104 2.20818,4.66171 9.32342,3.31227 14.35316,4.78439 5.02974,1.47212 2.45353,-37.78439 3.31226,-57.04461 0.85874,-19.26022 5.15242,-10.91822 8.09666,-15.82528 2.94424,-4.90706 2.82156,8.95539 4.04833,13.6171 1.22676,4.66171 3.06691,5.88848 5.15241,8.46469 2.0855,2.5762 0.85874,-7.11525 1.10409,-11.0409 0.24535,-3.92565 -10.79554,-13.49442 -16.56134,-19.50557 -5.7658,-6.01115 -3.31227,8.83271 -5.15241,12.51301 -1.84015,3.6803 2.33085,18.76951 3.68029,28.70632 1.34945,9.9368 3.06692,13.37174 4.78439,19.8736 1.71747,6.50186 -7.48327,6.13383 -11.04089,9.20075 -3.55762,3.06691 -5.88848,-2.69889 -9.20074,-4.41636 -3.31227,-1.71747 10.18215,-4.66171 15.82527,-6.99257 5.64313,-2.33085 13.24907,15.70261 19.50558,23.92194 6.2565,8.21933 -6.37918,9.32342 -9.56877,13.98513 -3.18959,4.66171 2.82156,7.48327 4.41635,11.04089 1.5948,3.55762 1.84015,-6.50186 2.57621,-9.56877 0.73606,-3.06692 1.5948,-4.17101 2.57621,-6.25651 0.98141,-2.0855 1.47212,-14.96654 2.20818,-22.44981 0.73606,-7.48327 -4.78439,-5.39777 -7.3606,-8.09666 -2.5762,-2.69888 10.30484,-2.33085 15.08922,-3.68029 4.78439,-1.34945 -0.85873,11.40892 -0.73606,17.29739 0.12268,5.88848 3.92565,-2.94423 5.88848,-4.41635 1.96282,-1.47212 -7.11524,-16.43867 -10.67286,-24.65799 -3.55763,-8.21934 -6.01116,-0.24536 -9.20075,0 -3.18959,0.24535 -1.59479,-3.31227 -2.5762,-5.52045 -0.98142,-2.20818 11.53159,-0.61338 17.66542,-0.73606 6.13383,-0.12268 0.85874,4.53903 0.73606,6.99256 -0.12268,2.45353 2.69889,4.66171 4.41636,6.99257 1.71747,2.33086 1.22676,-5.64312 1.84015,-8.46468 0.61338,-2.82157 -4.90707,-4.04833 -7.3606,-6.25651 -2.45353,-2.20818 5.39777,-5.52045 8.46469,-8.46468 3.06691,-2.94424 7.36059,9.07806 11.04089,13.98513 3.6803,4.90706 -1.22677,3.18959 -2.20818,4.78438 -0.98141,1.5948 5.15242,3.06692 8.09665,4.41636 2.94424,1.34944 0.24536,-7.11524 0.36803,-10.67286 0.12268,-3.55762 -6.37918,-6.13383 -9.9368,-9.20075 -3.55762,-3.06691 4.41636,-7.60595 6.62454,-11.77695 2.20817,-4.171 3.18959,5.64313 4.78438,8.83271 1.5948,3.1896 3.31227,4.53904 4.78439,6.99257 1.47212,2.45353 3.18959,-4.53903 4.78439,-7.36059 1.59479,-2.82156 -14.47584,-5.15242 -21.34573,-7.3606 -6.86989,-2.20818 -15.33457,-0.24535 -23.18587,-0.36803 -7.8513,-0.12267 -10.30483,-6.50186 -15.82528,-9.56877 -5.52045,-3.06692 5.64312,-13.98513 8.83271,-20.9777 3.18959,-6.992561 -7.11524,-6.992561 -10.67286,-10.672859 C 120.4684,92.375462 102.6803,83.788103 92.007435,77.654273 Z"
       transform="translate(-0.26023632)"
       sodipodi:insensitive="true" />
    <ellipse
       style="fill:#ffffff;stroke-width:0.275387"
       id="path9"
       cx="75.630104"
       cy="126.2342"
       rx="7.1765795"
       ry="6.9925652"
       sodipodi:insensitive="true" />
    <ellipse
       style="fill:#f9f9f9;stroke-width:0.264583"
       id="path10"
       cx="111.69702"
       cy="118.13755"
       rx="8.2806692"
       ry="8.0966539"
       sodipodi:insensitive="true" />
    <ellipse
       style="fill:#1a1a1a;stroke-width:0.264583"
       id="path12"
       cx="112.98513"
       cy="119.42564"
       rx="4.048327"
       ry="3.8643124"
       sodipodi:insensitive="true" />
    <ellipse
       style="fill:#1a1a1a;stroke-width:0.193663"
       id="path12-8"
       ry="3.0882268"
       rx="3.117487"
       cy="124.60629"
       cx="74.71685"
       inkscape:label="path13"
       sodipodi:insensitive="true" />
    <path
       style="fill:#bcd35f;stroke-width:0.264583"
       id="path17"
       sodipodi:type="arc"
       sodipodi:cx="40.596867"
       sodipodi:cy="213.78412"
       sodipodi:rx="19.517723"
       sodipodi:ry="8.4576807"
       sodipodi:start="0"
       sodipodi:end="5.6942421"
       sodipodi:arc-type="slice"
       d="m 60.11459,213.78412 a 19.517723,8.4576807 0 0 1 -16.654387,8.36617 19.517723,8.4576807 0 0 1 -21.540931,-5.91146 19.517723,8.4576807 0 0 1 10.334088,-10.10065 19.517723,8.4576807 0 0 1 24.573043,2.94784 l -16.229536,4.6981 z" />
  </g>
</svg>
